<svg width="40" height="39" viewBox="0 0 40 39" fill="none" xmlns="http://www.w3.org/2000/svg">
<g clip-path="url(#clip0_3_24)">
<mask id="path-3-inside-1_3_24" fill="white">
<path d="M39.0838 20.6986C38.917 20.6986 38.7506 20.6366 38.6233 20.5124L19.9776 2.33246L1.33148 20.5124C1.07726 20.7603 0.664985 20.7603 0.410328 20.5124C0.156111 20.2646 0.156111 19.8622 0.410328 19.6143L19.9776 0.536636L39.5444 19.6143C39.7986 19.8622 39.7986 20.2646 39.5444 20.5124C39.4175 20.6366 39.2507 20.6986 39.0838 20.6986Z"/>
</mask>
<path d="M39.0838 20.6986C38.917 20.6986 38.7506 20.6366 38.6233 20.5124L19.9776 2.33246L1.33148 20.5124C1.07726 20.7603 0.664985 20.7603 0.410328 20.5124C0.156111 20.2646 0.156111 19.8622 0.410328 19.6143L19.9776 0.536636L39.5444 19.6143C39.7986 19.8622 39.7986 20.2646 39.5444 20.5124C39.4175 20.6366 39.2507 20.6986 39.0838 20.6986Z" fill="#404753"/>
<path d="M38.6233 20.5124L37.227 21.9444L37.2271 21.9444L38.6233 20.5124ZM19.9776 2.33246L21.3738 0.900473L19.9776 -0.460855L18.5814 0.900457L19.9776 2.33246ZM1.33148 20.5124L2.72768 21.9444L1.33148 20.5124ZM0.410328 20.5124L-0.985872 21.9444L-0.984636 21.9456L0.410328 20.5124ZM0.410328 19.6143L-0.985856 18.1823L-0.985872 18.1823L0.410328 19.6143ZM19.9776 0.536636L21.3738 -0.895364L19.9776 -2.25664L18.5814 -0.89538L19.9776 0.536636ZM39.5444 20.5124L38.1482 19.0804L38.1457 19.0828L39.5444 20.5124ZM39.0838 18.6986C39.4116 18.6986 39.7543 18.8219 40.0195 19.0804L37.2271 21.9444C37.7469 22.4512 38.4224 22.6986 39.0838 22.6986V18.6986ZM40.0195 19.0804L21.3738 0.900473L18.5814 3.76444L37.227 21.9444L40.0195 19.0804ZM18.5814 0.900457L-0.0647187 19.0804L2.72768 21.9444L21.3738 3.76446L18.5814 0.900457ZM-0.0647187 19.0804C0.458485 18.5703 1.28418 18.572 1.80529 19.0792L-0.984636 21.9456C0.0457937 22.9486 1.69604 22.9503 2.72768 21.9444L-0.0647187 19.0804ZM1.80653 19.0804C2.35738 19.6175 2.35738 20.5092 1.80653 21.0463L-0.985872 18.1823C-2.04516 19.2151 -2.04516 20.9116 -0.985872 21.9444L1.80653 19.0804ZM1.80651 21.0463L21.3738 1.96865L18.5814 -0.89538L-0.985856 18.1823L1.80651 21.0463ZM18.5814 1.96864L38.1482 21.0463L40.9406 18.1823L21.3738 -0.895364L18.5814 1.96864ZM38.1482 21.0463C37.5974 20.5092 37.5974 19.6175 38.1482 19.0804L40.9406 21.9444C41.9999 20.9116 41.9999 19.2151 40.9406 18.1823L38.1482 21.0463ZM38.1457 19.0828C38.4137 18.8206 38.7582 18.6986 39.0838 18.6986V22.6986C39.7432 22.6986 40.4213 22.4525 40.9431 21.942L38.1457 19.0828Z" fill="white" mask="url(#path-3-inside-1_3_24)"/>
<g filter="url(#filter0_d_3_24)">
<mask id="path-5-inside-2_3_24" fill="white">
<path d="M34.3687 15.0967C34.0092 15.0967 33.7172 15.3809 33.7172 15.732V36.3589C33.7172 36.7814 33.3646 37.1251 32.9313 37.1251H25.5673V27.837C25.5673 25.4178 23.5489 23.4495 21.0678 23.4495H18.8883C16.4071 23.4495 14.3883 25.4178 14.3883 27.837V37.1247H7.02393C6.59058 37.1247 6.23801 36.781 6.23801 36.3584V15.732C6.23801 15.3809 5.94648 15.0967 5.58644 15.0967C5.22641 15.0967 4.93488 15.3809 4.93488 15.732V36.3589C4.93488 37.4817 5.87183 38.3953 7.0235 38.3953H14.3875H14.9644H15.6902V27.837C15.6902 26.1178 17.1241 24.7196 18.8874 24.7196H21.0669C22.8297 24.7196 24.2637 26.1178 24.2637 27.837V38.3948H24.9667H25.5664H32.9308C34.0825 38.3948 35.0194 37.4817 35.0194 36.3584V15.732C35.0199 15.3809 34.7283 15.0967 34.3687 15.0967Z"/>
</mask>
<path d="M34.3687 15.0967C34.0092 15.0967 33.7172 15.3809 33.7172 15.732V36.3589C33.7172 36.7814 33.3646 37.1251 32.9313 37.1251H25.5673V27.837C25.5673 25.4178 23.5489 23.4495 21.0678 23.4495H18.8883C16.4071 23.4495 14.3883 25.4178 14.3883 27.837V37.1247H7.02393C6.59058 37.1247 6.23801 36.781 6.23801 36.3584V15.732C6.23801 15.3809 5.94648 15.0967 5.58644 15.0967C5.22641 15.0967 4.93488 15.3809 4.93488 15.732V36.3589C4.93488 37.4817 5.87183 38.3953 7.0235 38.3953H14.3875H14.9644H15.6902V27.837C15.6902 26.1178 17.1241 24.7196 18.8874 24.7196H21.0669C22.8297 24.7196 24.2637 26.1178 24.2637 27.837V38.3948H24.9667H25.5664H32.9308C34.0825 38.3948 35.0194 37.4817 35.0194 36.3584V15.732C35.0199 15.3809 34.7283 15.0967 34.3687 15.0967Z" fill="#404753"/>
<path d="M25.5673 37.1251H23.5673V39.1251H25.5673V37.1251ZM14.3883 37.1247V39.1247H16.3883V37.1247H14.3883ZM15.6902 38.3953V40.3953H17.6902V38.3953H15.6902ZM24.2637 38.3948H22.2637V40.3948H24.2637V38.3948ZM35.0194 15.732L33.0194 15.7295V15.732H35.0194ZM34.3687 13.0967C32.9535 13.0967 31.7172 14.2281 31.7172 15.732H35.7172C35.7172 16.5338 35.0648 17.0967 34.3687 17.0967V13.0967ZM31.7172 15.732V36.3589H35.7172V15.732H31.7172ZM31.7172 36.3589C31.7172 35.6294 32.3081 35.1251 32.9313 35.1251V39.1251C34.4211 39.1251 35.7172 37.9334 35.7172 36.3589H31.7172ZM32.9313 35.1251H25.5673V39.1251H32.9313V35.1251ZM27.5673 37.1251V27.837H23.5673V37.1251H27.5673ZM27.5673 27.837C27.5673 24.2661 24.6057 21.4495 21.0678 21.4495V25.4495C22.4921 25.4495 23.5673 26.5696 23.5673 27.837H27.5673ZM21.0678 21.4495H18.8883V25.4495H21.0678V21.4495ZM18.8883 21.4495C15.3506 21.4495 12.3883 24.2658 12.3883 27.837H16.3883C16.3883 26.5698 17.4637 25.4495 18.8883 25.4495V21.4495ZM12.3883 27.837V37.1247H16.3883V27.837H12.3883ZM14.3883 35.1247H7.02393V39.1247H14.3883V35.1247ZM7.02393 35.1247C7.64712 35.1247 8.23801 35.629 8.23801 36.3584H4.23801C4.23801 37.933 5.53404 39.1247 7.02393 39.1247V35.1247ZM8.23801 36.3584V15.732H4.23801V36.3584H8.23801ZM8.23801 15.732C8.23801 14.2289 7.00301 13.0967 5.58644 13.0967V17.0967C4.88994 17.0967 4.23801 16.5329 4.23801 15.732H8.23801ZM5.58644 13.0967C4.16988 13.0967 2.93488 14.2289 2.93488 15.732H6.93488C6.93488 16.5329 6.28295 17.0967 5.58644 17.0967V13.0967ZM2.93488 15.732V36.3589H6.93488V15.732H2.93488ZM2.93488 36.3589C2.93488 38.6337 4.8153 40.3953 7.0235 40.3953V36.3953C6.98471 36.3953 6.95935 36.3816 6.94351 36.3661C6.93566 36.3585 6.93342 36.3533 6.93356 36.3537C6.93369 36.354 6.93415 36.3551 6.93452 36.3569C6.93493 36.3588 6.93488 36.3598 6.93488 36.3589H2.93488ZM7.0235 40.3953H14.3875V36.3953H7.0235V40.3953ZM14.3875 40.3953H14.9644V36.3953H14.3875V40.3953ZM14.9644 40.3953H15.6902V36.3953H14.9644V40.3953ZM17.6902 38.3953V27.837H13.6902V38.3953H17.6902ZM17.6902 27.837C17.6902 27.2698 18.1807 26.7196 18.8874 26.7196V22.7196C16.0676 22.7196 13.6902 24.9658 13.6902 27.837H17.6902ZM18.8874 26.7196H21.0669V22.7196H18.8874V26.7196ZM21.0669 26.7196C21.773 26.7196 22.2637 27.2696 22.2637 27.837H26.2637C26.2637 24.9659 23.8865 22.7196 21.0669 22.7196V26.7196ZM22.2637 27.837V38.3948H26.2637V27.837H22.2637ZM24.2637 40.3948H24.9667V36.3948H24.2637V40.3948ZM24.9667 40.3948H25.5664V36.3948H24.9667V40.3948ZM25.5664 40.3948H32.9308V36.3948H25.5664V40.3948ZM32.9308 40.3948C35.1387 40.3948 37.0194 38.634 37.0194 36.3584H33.0194C33.0194 36.3585 33.0199 36.3554 33.0207 36.3535C33.0209 36.3531 33.0187 36.3582 33.0109 36.3658C32.9952 36.3811 32.9699 36.3948 32.9308 36.3948V40.3948ZM37.0194 36.3584V15.732H33.0194V36.3584H37.0194ZM37.0194 15.7345C37.0213 14.2298 35.7852 13.0967 34.3687 13.0967V17.0967C33.6715 17.0967 33.0184 16.532 33.0194 15.7295L37.0194 15.7345Z" fill="white" mask="url(#path-5-inside-2_3_24)"/>
</g>
</g>
<rect x="0.5" y="0.5" width="39" height="38" stroke="#364D6B"/>
<defs>
<filter id="filter0_d_3_24" x="0.934875" y="15.0967" width="38.0846" height="31.2986" filterUnits="userSpaceOnUse" color-interpolation-filters="sRGB">
<feFlood flood-opacity="0" result="BackgroundImageFix"/>
<feColorMatrix in="SourceAlpha" type="matrix" values="0 0 0 0 0 0 0 0 0 0 0 0 0 0 0 0 0 0 127 0" result="hardAlpha"/>
<feOffset dy="4"/>
<feGaussianBlur stdDeviation="2"/>
<feComposite in2="hardAlpha" operator="out"/>
<feColorMatrix type="matrix" values="0 0 0 0 0 0 0 0 0 0 0 0 0 0 0 0 0 0 0.25 0"/>
<feBlend mode="normal" in2="BackgroundImageFix" result="effect1_dropShadow_3_24"/>
<feBlend mode="normal" in="SourceGraphic" in2="effect1_dropShadow_3_24" result="shape"/>
</filter>
<clipPath id="clip0_3_24">
<rect width="40" height="39" fill="white"/>
</clipPath>
</defs>
</svg>
